<svg width="20" height="18" viewBox="0 0 20 18" fill="none" xmlns="http://www.w3.org/2000/svg">
<path d="M0.165 17.052C0.351 17.332 0.664 17.501 1 17.501H16C16.4 17.501 16.762 17.263 16.919 16.895L19.919 9.89498C20.052 9.58598 20.02 9.23198 19.835 8.95098C19.649 8.66998 19.336 8.50098 19 8.50098H18V4.50098C18 3.39798 17.103 2.50098 16 2.50098H9.9L7.616 0.713977C7.44 0.575977 7.224 0.500977 7 0.500977H2C0.897 0.500977 0 1.39798 0 2.50098V16.501H0.00699997C0.00699997 16.693 0.056 16.886 0.165 17.052ZM15.341 15.501H2.517L4.66 10.501H17.484L15.341 15.501ZM16 4.50098V8.50098H4C3.6 8.50098 3.238 8.73898 3.081 9.10698L2 11.63V4.50098H9.556H10H16Z" fill="#4C4C4C"/>
</svg>
