<svg width="14" height="16" viewBox="0 0 14 16" fill="none" xmlns="http://www.w3.org/2000/svg">
<path d="M6.23303 0.96875H7.40491C7.50907 0.96875 7.56116 1.02083 7.56116 1.125V7.25781H13.3815C13.4856 7.25781 13.5377 7.3099 13.5377 7.41406V8.58594C13.5377 8.6901 13.4856 8.74219 13.3815 8.74219H7.56116V14.875C7.56116 14.9792 7.50907 15.0312 7.40491 15.0312H6.23303C6.12887 15.0312 6.07678 14.9792 6.07678 14.875V8.74219H0.25647C0.152304 8.74219 0.10022 8.6901 0.10022 8.58594V7.41406C0.10022 7.3099 0.152304 7.25781 0.25647 7.25781H6.07678V1.125C6.07678 1.02083 6.12887 0.96875 6.23303 0.96875Z" fill="white"/>
</svg>
