<svg width="126" height="36" viewBox="0 0 126 36" fill="none" xmlns="http://www.w3.org/2000/svg">
<path d="M14.3417 28.7188C10.2712 28.7188 6.90915 27.3662 4.25559 24.6611C1.60203 21.956 0.275254 18.6198 0.275254 14.6523C0.275254 10.6591 1.60203 7.32282 4.25559 4.64349C6.90915 1.93841 10.2712 0.585867 14.3417 0.585867C16.7892 0.585867 19.0434 1.16553 21.1044 2.32485C23.1912 3.45841 24.8142 5.00417 25.9736 6.96214L21.3749 9.62858C20.7051 8.41773 19.7519 7.47739 18.5153 6.80756C17.2786 6.11197 15.8875 5.76417 14.3417 5.76417C11.7139 5.76417 9.58848 6.58858 7.96542 8.23739C6.36814 9.88621 5.56949 12.0245 5.56949 14.6523C5.56949 17.2543 6.36814 19.3798 7.96542 21.0286C9.58848 22.6774 11.7139 23.5018 14.3417 23.5018C15.8875 23.5018 17.2786 23.1669 18.5153 22.4971C19.7776 21.8015 20.7308 20.8611 21.3749 19.676L25.9736 22.3425C24.8142 24.3004 23.2041 25.8591 21.1431 27.0184C19.082 28.152 16.8149 28.7188 14.3417 28.7188ZM30.6335 6.53706C29.8091 6.53706 29.0877 6.24078 28.4694 5.64824C27.8769 5.02994 27.5806 4.30858 27.5806 3.48417C27.5806 2.65977 27.8769 1.93841 28.4694 1.3201C29.0877 0.701799 29.8091 0.392647 30.6335 0.392647C31.4837 0.392647 32.205 0.701799 32.7976 1.3201C33.4159 1.93841 33.725 2.65977 33.725 3.48417C33.725 4.30858 33.4159 5.02994 32.7976 5.64824C32.205 6.24078 31.4837 6.53706 30.6335 6.53706ZM28.1603 28.1777V8.8557H33.1454V28.1777H28.1603ZM47.601 13.6476H43.2342V21.6855C43.2342 22.3554 43.4016 22.8449 43.7365 23.154C44.0715 23.4632 44.561 23.6435 45.205 23.695C45.8491 23.7208 46.6477 23.7079 47.601 23.6564V28.1777C44.1745 28.5642 41.7528 28.2421 40.3359 27.2116C38.9447 26.1811 38.2491 24.3391 38.2491 21.6855V13.6476H34.8871V8.8557H38.2491V4.95265L43.2342 3.44553V8.8557H47.601V13.6476ZM52.4297 6.53706C51.6052 6.53706 50.8839 6.24078 50.2656 5.64824C49.673 5.02994 49.3768 4.30858 49.3768 3.48417C49.3768 2.65977 49.673 1.93841 50.2656 1.3201C50.8839 0.701799 51.6052 0.392647 52.4297 0.392647C53.2798 0.392647 54.0012 0.701799 54.5937 1.3201C55.212 1.93841 55.5212 2.65977 55.5212 3.48417C55.5212 4.30858 55.212 5.02994 54.5937 5.64824C54.0012 6.24078 53.2798 6.53706 52.4297 6.53706ZM49.9564 28.1777V8.8557H54.9415V28.1777H49.9564ZM73.0297 8.8557H78.0147V28.1777H73.0297V25.8977C71.5354 27.7784 69.4358 28.7188 66.7307 28.7188C64.1544 28.7188 61.9388 27.7398 60.0839 25.7818C58.2547 23.7981 57.3402 21.3764 57.3402 18.5167C57.3402 15.6571 58.2547 13.2482 60.0839 11.2903C61.9388 9.30655 64.1544 8.31468 66.7307 8.31468C69.4358 8.31468 71.5354 9.25502 73.0297 11.1357V8.8557ZM63.8324 22.4584C64.8371 23.4632 66.1124 23.9655 67.6581 23.9655C69.2039 23.9655 70.4791 23.4632 71.4839 22.4584C72.5144 21.4279 73.0297 20.114 73.0297 18.5167C73.0297 16.9194 72.5144 15.6184 71.4839 14.6137C70.4791 13.5832 69.2039 13.0679 67.6581 13.0679C66.1124 13.0679 64.8371 13.5832 63.8324 14.6137C62.8276 15.6184 62.3253 16.9194 62.3253 18.5167C62.3253 20.114 62.8276 21.4279 63.8324 22.4584ZM92.6213 8.31468C95.2233 8.31468 97.4389 9.30655 99.2681 11.2903C101.123 13.2482 102.05 15.6571 102.05 18.5167C102.05 21.3764 101.123 23.7981 99.2681 25.7818C97.4389 27.7398 95.2233 28.7188 92.6213 28.7188C89.9162 28.7188 87.8294 27.7784 86.361 25.8977V35.9065H81.3759V8.8557H86.361V11.1357C87.8294 9.25502 89.9162 8.31468 92.6213 8.31468ZM87.8681 22.4584C88.8728 23.4632 90.1481 23.9655 91.6938 23.9655C93.2396 23.9655 94.5149 23.4632 95.5196 22.4584C96.5501 21.4279 97.0654 20.114 97.0654 18.5167C97.0654 16.9194 96.5501 15.6184 95.5196 14.6137C94.5149 13.5832 93.2396 13.0679 91.6938 13.0679C90.1481 13.0679 88.8728 13.5832 87.8681 14.6137C86.8633 15.6184 86.361 16.9194 86.361 18.5167C86.361 20.114 86.8633 21.4279 87.8681 22.4584ZM115.652 8.31468C118.254 8.31468 120.47 9.30655 122.299 11.2903C124.154 13.2482 125.081 15.6571 125.081 18.5167C125.081 21.3764 124.154 23.7981 122.299 25.7818C120.47 27.7398 118.254 28.7188 115.652 28.7188C112.947 28.7188 110.86 27.7784 109.392 25.8977V35.9065H104.407V8.8557H109.392V11.1357C110.86 9.25502 112.947 8.31468 115.652 8.31468ZM110.899 22.4584C111.904 23.4632 113.179 23.9655 114.725 23.9655C116.271 23.9655 117.546 23.4632 118.551 22.4584C119.581 21.4279 120.096 20.114 120.096 18.5167C120.096 16.9194 119.581 15.6184 118.551 14.6137C117.546 13.5832 116.271 13.0679 114.725 13.0679C113.179 13.0679 111.904 13.5832 110.899 14.6137C109.894 15.6184 109.392 16.9194 109.392 18.5167C109.392 20.114 109.894 21.4279 110.899 22.4584Z" fill="url(#paint0_linear_1_747)"/>
<defs>
<linearGradient id="paint0_linear_1_747" x1="159.903" y1="10.2905" x2="-1.00076" y2="12.0988" gradientUnits="userSpaceOnUse">
<stop stop-color="#2B659D"/>
<stop offset="0.484375" stop-color="#2B659D"/>
<stop offset="1" stop-color="#0E4172"/>
</linearGradient>
</defs>
</svg>
