
<svg version="1.0" xmlns="http://www.w3.org/2000/svg"
 width="24" height="24" viewBox="0 0 225.000000 224.000000"
 preserveAspectRatio="xMidYMid meet">

<g transform="translate(0.000000,224.000000) scale(0.100000,-0.100000)"
fill="#000000" stroke="none">
<path d="M603 2210 c-25 -15 -34 -29 -39 -59 l-6 -39 -197 -4 c-188 -3 -199
-4 -246 -29 -35 -18 -59 -39 -80 -74 l-30 -48 -3 -234 -4 -233 26 0 26 0 0
-627 c0 -599 4 -692 29 -707 5 -3 3 11 -5 32 -10 29 -13 170 -14 675 l0 637
1065 0 1065 0 0 -637 c-1 -505 -4 -646 -14 -675 -8 -21 -10 -35 -5 -32 25 15
29 108 29 707 l0 627 26 0 26 0 -4 233 -3 234 -30 48 c-21 35 -45 56 -80 74
-47 25 -58 26 -251 29 l-202 4 -6 37 c-3 21 -14 45 -25 55 -41 37 -138 28
-161 -15 -6 -10 -10 -31 -10 -48 l0 -31 -353 0 -353 0 -12 45 c-19 71 -92 96
-159 55z m-10 -506 c20 -17 40 -24 72 -24 32 0 52 7 72 24 24 21 28 32 33 107
l5 84 22 -29 c53 -66 51 -151 -3 -216 -36 -42 -74 -60 -129 -60 -143 0 -221
163 -132 276 l22 29 5 -84 c5 -75 9 -86 33 -107z m887 102 c0 -79 2 -86 26
-105 41 -33 108 -29 145 8 27 28 29 35 29 107 l0 77 25 -23 c47 -44 56 -120
24 -187 -38 -79 -151 -118 -228 -78 -56 28 -111 123 -97 166 2 8 7 26 10 40 6
29 42 79 57 79 5 0 9 -38 9 -84z"/>
<path d="M374 1177 c-2 -7 -3 -67 -2 -133 l3 -119 155 0 155 0 0 130 0 130
-153 3 c-120 2 -154 0 -158 -11z"/>
<path d="M974 1177 c-2 -7 -3 -67 -2 -133 l3 -119 155 0 155 0 0 130 0 130
-153 3 c-120 2 -154 0 -158 -11z"/>
<path d="M1564 1177 c-2 -7 -3 -67 -2 -133 l3 -119 155 0 155 0 0 130 0 130
-153 3 c-120 2 -154 0 -158 -11z"/>
<path d="M382 648 c-18 -18 -16 -242 2 -257 9 -8 60 -11 157 -9 l144 3 3 124
c2 82 -1 128 -9 137 -15 19 -279 20 -297 2z"/>
<path d="M982 652 c-9 -7 -12 -41 -10 -138 l3 -129 144 -3 c97 -2 148 1 157 9
18 15 20 239 2 257 -14 14 -275 17 -296 4z"/>
<path d="M1571 646 c-8 -9 -11 -55 -9 -137 l3 -124 155 0 155 0 3 124 c2 82
-1 128 -9 137 -17 20 -281 20 -298 0z"/>
<path d="M12 180 c0 -14 2 -19 5 -12 2 6 2 18 0 25 -3 6 -5 1 -5 -13z"/>
<path d="M2232 180 c0 -14 2 -19 5 -12 2 6 2 18 0 25 -3 6 -5 1 -5 -13z"/>
<path d="M20 146 c0 -38 102 -126 145 -126 12 1 5 6 -18 15 -44 15 -81 46
-108 90 -11 17 -19 26 -19 21z"/>
<path d="M2216 133 c-10 -31 -70 -83 -112 -98 -24 -9 -31 -14 -19 -15 30 0 97
46 124 86 13 19 21 37 18 40 -3 3 -8 -3 -11 -13z"/>
<path d="M105 120 c10 -11 20 -20 23 -20 3 0 -3 9 -13 20 -10 11 -20 20 -23
20 -3 0 3 -9 13 -20z"/>
<path d="M2134 118 l-19 -23 23 19 c12 11 22 21 22 23 0 8 -8 2 -26 -19z"/>
<path d="M154 86 c11 -9 27 -16 35 -15 14 0 14 1 1 6 -8 3 -24 10 -35 15 -20
9 -20 9 -1 -6z"/>
<path d="M2075 85 c-16 -8 -23 -14 -14 -15 8 0 24 7 35 15 23 18 18 18 -21 0z"/>
<path d="M668 63 c255 -2 669 -2 920 0 251 1 43 2 -463 2 -506 0 -712 -1 -457
-2z"/>
<path d="M658 13 c261 -2 684 -2 940 0 257 1 44 2 -473 2 -517 0 -727 -1 -467
-2z"/>
</g>
</svg>
