<svg width="20" height="18" viewBox="0 0 20 18" fill="none" xmlns="http://www.w3.org/2000/svg">
<path d="M9.32911 2.43182H18.3977C18.6297 2.43182 18.8522 2.33005 19.0163 2.14891C19.1803 1.96777 19.2725 1.72208 19.2725 1.46591C19.2725 1.20973 19.1803 0.964051 19.0163 0.782908C18.8522 0.601765 18.6297 0.5 18.3977 0.5H9.32911C9.0971 0.5 8.8746 0.601765 8.71054 0.782908C8.54649 0.964051 8.45432 1.20973 8.45432 1.46591C8.45432 1.72208 8.54649 1.96777 8.71054 2.14891C8.8746 2.33005 9.0971 2.43182 9.32911 2.43182Z" fill="#2B659D"/>
<path d="M1.1627 8.16461L4.83904 4.48827C5.21625 4.11106 5.82783 4.11106 6.20504 4.48827C6.58225 4.86548 6.58225 5.47706 6.20504 5.85427L4.02522 8.03409H18.3977C18.6297 8.03409 18.8522 8.13586 19.0163 8.317C19.1803 8.49814 19.2725 8.74382 19.2725 9C19.2725 9.25618 19.1803 9.50186 19.0163 9.683C18.8522 9.86414 18.6297 9.96591 18.3977 9.96591L4.02513 9.96601L6.20504 12.1459C6.58225 12.5231 6.58225 13.1347 6.20504 13.5119C5.82783 13.8891 5.21625 13.8891 4.83904 13.5119L1.16217 9.83505C1.09738 9.79346 1.03717 9.74252 0.98327 9.683C0.819215 9.50186 0.727051 9.25618 0.727051 9C0.727051 8.74382 0.819215 8.49814 0.98327 8.317C1.03732 8.25732 1.09771 8.20625 1.1627 8.16461Z" fill="#2B659D"/>
<path d="M9.32911 15.5682H18.3977C18.6297 15.5682 18.8522 15.6699 19.0163 15.8511C19.1803 16.0322 19.2725 16.2779 19.2725 16.5341C19.2725 16.7903 19.1803 17.0359 19.0163 17.2171C18.8522 17.3982 18.6297 17.5 18.3977 17.5H9.32911C9.0971 17.5 8.8746 17.3982 8.71054 17.2171C8.54649 17.0359 8.45432 16.7903 8.45432 16.5341C8.45432 16.2779 8.54649 16.0322 8.71054 15.8511C8.8746 15.6699 9.0971 15.5682 9.32911 15.5682Z" fill="#2B659D"/>
</svg>
