<svg width="20" height="20" viewBox="0 0 20 20" fill="none" xmlns="http://www.w3.org/2000/svg">
<path d="M15.7102 12.3147C15.6075 12.5475 15.5769 12.8056 15.6222 13.056C15.6676 13.3063 15.787 13.5373 15.9649 13.7191L16.0112 13.7654C16.1546 13.9088 16.2685 14.079 16.3461 14.2663C16.4238 14.4537 16.4638 14.6545 16.4638 14.8573C16.4638 15.0601 16.4238 15.2609 16.3461 15.4483C16.2685 15.6356 16.1546 15.8058 16.0112 15.9492C15.8678 16.0927 15.6976 16.2065 15.5103 16.2842C15.3229 16.3618 15.1221 16.4018 14.9193 16.4018C14.7165 16.4018 14.5156 16.3618 14.3283 16.2842C14.1409 16.2065 13.9707 16.0927 13.8274 15.9492L13.7811 15.9029C13.5992 15.725 13.3683 15.6057 13.1179 15.5603C12.8676 15.5149 12.6094 15.5455 12.3767 15.6482C12.1485 15.7461 11.9538 15.9085 11.8167 16.1155C11.6796 16.3225 11.6061 16.5651 11.6051 16.8134V16.9446C11.6051 17.3539 11.4425 17.7464 11.153 18.0359C10.8636 18.3253 10.4711 18.4879 10.0618 18.4879C9.65247 18.4879 9.25993 18.3253 8.97051 18.0359C8.68109 17.7464 8.51849 17.3539 8.51849 16.9446V16.8751C8.51251 16.6197 8.42984 16.372 8.28122 16.1642C8.13259 15.9564 7.92489 15.7982 7.68511 15.71C7.45237 15.6072 7.1942 15.5766 6.94388 15.622C6.69356 15.6674 6.46258 15.7867 6.28072 15.9646L6.23442 16.0109C6.09109 16.1544 5.92089 16.2682 5.73353 16.3459C5.54618 16.4236 5.34536 16.4635 5.14255 16.4635C4.93974 16.4635 4.73891 16.4236 4.55156 16.3459C4.36421 16.2682 4.194 16.1544 4.05067 16.0109C3.90718 15.8676 3.79335 15.6974 3.71569 15.51C3.63802 15.3227 3.59805 15.1218 3.59805 14.919C3.59805 14.7162 3.63802 14.5154 3.71569 14.328C3.79335 14.1407 3.90718 13.9705 4.05067 13.8272L4.09697 13.7809C4.27486 13.599 4.3942 13.368 4.43958 13.1177C4.48497 12.8674 4.45433 12.6092 4.35161 12.3765C4.2538 12.1482 4.09138 11.9536 3.88436 11.8165C3.67733 11.6794 3.43473 11.6058 3.18643 11.6048H3.05525C2.64595 11.6048 2.2534 11.4422 1.96398 11.1528C1.67456 10.8634 1.51196 10.4708 1.51196 10.0615C1.51196 9.65223 1.67456 9.25969 1.96398 8.97026C2.2534 8.68084 2.64595 8.51825 3.05525 8.51825H3.1247C3.38011 8.51227 3.62781 8.4296 3.83561 8.28097C4.04341 8.13235 4.20169 7.92465 4.28988 7.68487C4.3926 7.45213 4.42324 7.19396 4.37785 6.94364C4.33246 6.69332 4.21313 6.46234 4.03524 6.28048L3.98894 6.23418C3.84545 6.09085 3.73162 5.92064 3.65395 5.73329C3.57629 5.54594 3.53631 5.34512 3.53631 5.1423C3.53631 4.93949 3.57629 4.73867 3.65395 4.55132C3.73162 4.36396 3.84545 4.19376 3.98894 4.05043C4.13227 3.90694 4.30248 3.79311 4.48983 3.71544C4.67718 3.63778 4.878 3.5978 5.08082 3.5978C5.28363 3.5978 5.48445 3.63778 5.6718 3.71544C5.85916 3.79311 6.02936 3.90694 6.17269 4.05043L6.21899 4.09673C6.40085 4.27462 6.63183 4.39395 6.88215 4.43934C7.13247 4.48473 7.39064 4.45409 7.62338 4.35137H7.68511C7.91334 4.25355 8.10799 4.09114 8.24509 3.88411C8.38219 3.67709 8.45577 3.43449 8.45676 3.18619V3.05501C8.45676 2.6457 8.61935 2.25316 8.90878 1.96374C9.1982 1.67431 9.59074 1.51172 10 1.51172C10.4094 1.51172 10.8019 1.67431 11.0913 1.96374C11.3807 2.25316 11.5433 2.6457 11.5433 3.05501V3.12445C11.5443 3.37276 11.6179 3.61536 11.755 3.82238C11.8921 4.0294 12.0867 4.19182 12.315 4.28964C12.5477 4.39235 12.8059 4.42299 13.0562 4.37761C13.3065 4.33222 13.5375 4.21289 13.7194 4.03499L13.7657 3.9887C13.909 3.84521 14.0792 3.73137 14.2666 3.65371C14.4539 3.57605 14.6547 3.53607 14.8575 3.53607C15.0604 3.53607 15.2612 3.57605 15.4485 3.65371C15.6359 3.73137 15.8061 3.84521 15.9494 3.9887C16.0929 4.13203 16.2067 4.30223 16.2844 4.48958C16.3621 4.67694 16.402 4.87776 16.402 5.08057C16.402 5.28338 16.3621 5.48421 16.2844 5.67156C16.2067 5.85891 16.0929 6.02912 15.9494 6.17245L15.9031 6.21875C15.7252 6.40061 15.6059 6.63159 15.5605 6.88191C15.5151 7.13222 15.5458 7.3904 15.6485 7.62314V7.68487C15.7463 7.9131 15.9087 8.10774 16.1157 8.24485C16.3228 8.38195 16.5654 8.45552 16.8137 8.45651H16.9448C17.3541 8.45651 17.7467 8.61911 18.0361 8.90853C18.3255 9.19796 18.4881 9.5905 18.4881 9.9998C18.4881 10.4091 18.3255 10.8016 18.0361 11.0911C17.7467 11.3805 17.3541 11.5431 16.9448 11.5431H16.8754C16.6271 11.5441 16.3845 11.6177 16.1775 11.7548C15.9704 11.8919 15.808 12.0865 15.7102 12.3147V12.3147Z" stroke="#4C4C4C" stroke-width="2" stroke-linecap="round" stroke-linejoin="round"/>
</svg>
