<svg width="63" height="63" viewBox="0 0 63 63" fill="none" xmlns="http://www.w3.org/2000/svg">
<path d="M31.5001 47.0207C40.0719 47.0207 47.0207 40.0719 47.0207 31.5001C47.0207 22.9283 40.0719 15.9794 31.5001 15.9794C22.9283 15.9794 15.9795 22.9283 15.9795 31.5001C15.9795 40.0719 22.9283 47.0207 31.5001 47.0207Z" fill="#F5D52D"/>
<path d="M31.4995 10.7888C31.8762 10.7888 32.1843 10.4806 32.1843 10.104V0.684784C32.1843 0.308153 31.8762 0 31.4995 0C31.1229 0 30.8148 0.308153 30.8148 0.684784V10.104C30.8148 10.4806 31.1229 10.7888 31.4995 10.7888Z" fill="#F5D52D"/>
<path d="M22.6797 11.9941C22.7892 12.2577 23.0426 12.4187 23.3131 12.4187C23.7993 12.4187 24.1314 11.9222 23.9465 11.4702L22.1455 7.11843C22.0017 6.76919 21.6011 6.60142 21.2519 6.74865C20.9026 6.89245 20.7383 7.29305 20.8821 7.64229L22.6797 11.9941Z" fill="#F5D52D"/>
<path d="M7.11809 22.1421L11.4699 23.9431C11.5555 23.9773 11.6445 23.9945 11.7301 23.9945C12.4731 23.9945 12.6819 22.9639 11.9937 22.6762L7.64195 20.8753C7.29271 20.7315 6.89211 20.8958 6.74831 21.245C6.6045 21.5977 6.76885 21.9983 7.11809 22.1421Z" fill="#F5D52D"/>
<path d="M11.4699 39.0563L7.11809 40.8573C6.42646 41.1449 6.63532 42.1755 7.38173 42.1755C7.46733 42.1755 7.55636 42.1584 7.64195 42.1242L11.9937 40.3232C12.343 40.1794 12.5073 39.7788 12.3635 39.4295C12.2197 39.0769 11.8226 38.9091 11.4699 39.0563Z" fill="#F5D52D"/>
<path d="M22.1426 55.8815L23.9436 51.5296C24.0874 51.1804 23.923 50.7798 23.5738 50.636C23.2211 50.4922 22.824 50.6565 22.6801 51.0058L20.8792 55.3576C20.7354 55.7068 20.8997 56.1074 21.249 56.2512C21.5982 56.395 21.9988 56.2307 22.1426 55.8815Z" fill="#F5D52D"/>
<path d="M41.7544 56.2517C42.1037 56.1079 42.268 55.7073 42.1242 55.358L40.3233 51.0062C40.1795 50.657 39.7789 50.4892 39.4296 50.6365C39.0804 50.7803 38.916 51.1809 39.0598 51.5301L40.8608 55.8819C41.0046 56.2312 41.4052 56.3955 41.7544 56.2517Z" fill="#F5D52D"/>
<path d="M56.2512 41.7515C56.395 41.4023 56.2307 41.0017 55.8814 40.8579L51.5296 39.0569C51.177 38.9131 50.7798 39.0774 50.636 39.4267C50.4922 39.7759 50.6565 40.1765 51.0058 40.3203L55.3576 42.1213C55.7068 42.2685 56.1074 42.1008 56.2512 41.7515Z" fill="#F5D52D"/>
<path d="M51.2694 23.9979C51.355 23.9979 51.444 23.9807 51.5296 23.9465L55.8814 22.1455C56.2307 22.0017 56.395 21.6011 56.2512 21.2519C56.1074 20.9026 55.7068 20.7383 55.3576 20.8821L51.0058 22.6831C50.3142 22.9638 50.523 23.9979 51.2694 23.9979Z" fill="#F5D52D"/>
<path d="M39.6897 12.4186C39.9602 12.4186 40.2136 12.2611 40.3231 11.994L42.1241 7.6422C42.2679 7.29296 42.1036 6.89236 41.7543 6.74855C41.4051 6.60475 41.0045 6.7691 40.8607 7.11834L39.0597 11.4701C38.868 11.9221 39.2035 12.4186 39.6897 12.4186Z" fill="#F5D52D"/>
<path d="M15.8867 16.8556C16.0202 16.9892 16.1948 17.0577 16.3694 17.0577C16.972 17.0577 17.2871 16.3215 16.8522 15.8901L10.1927 9.23057C9.92564 8.96351 9.4908 8.96351 9.22374 9.23057C8.95667 9.49764 8.95667 9.93248 9.22374 10.1995L15.8867 16.8556Z" fill="#F5D52D"/>
<path d="M0.684783 32.1849H10.104C10.4806 32.1849 10.7888 31.8768 10.7888 31.5002C10.7888 31.1235 10.4806 30.8154 10.104 30.8154H0.684783C0.308152 30.8154 0 31.1235 0 31.5002C0 31.8768 0.308152 32.1849 0.684783 32.1849Z" fill="#F5D52D"/>
<path d="M9.70953 53.9742C9.88415 53.9742 10.0588 53.9057 10.1923 53.7722L16.8518 47.1126C17.1189 46.8456 17.1189 46.4107 16.8518 46.1437C16.5847 45.8766 16.1499 45.8766 15.8828 46.1437L9.22333 52.8032C8.79192 53.238 9.10692 53.9742 9.70953 53.9742Z" fill="#F5D52D"/>
<path d="M31.4992 52.2109C31.1226 52.2109 30.8145 52.5191 30.8145 52.8957V62.3149C30.8145 62.6916 31.1226 62.9997 31.4992 62.9997C31.8759 62.9997 32.184 62.6916 32.184 62.3149V52.8957C32.184 52.5191 31.8793 52.2109 31.4992 52.2109Z" fill="#F5D52D"/>
<path d="M53.776 52.807L47.1165 46.1475C46.8495 45.8804 46.4146 45.8804 46.1476 46.1475C45.8805 46.4146 45.8805 46.8494 46.1476 47.1165L52.8071 53.776C53.0741 54.0431 53.509 54.0431 53.776 53.776C54.0431 53.5055 54.0431 53.0741 53.776 52.807Z" fill="#F5D52D"/>
<path d="M62.3149 30.8154H52.8957C52.5191 30.8154 52.2109 31.1235 52.2109 31.5002C52.2109 31.8768 52.5191 32.1849 52.8957 32.1849H62.3149C62.6915 32.1849 62.9997 31.8768 62.9997 31.5002C62.9997 31.1235 62.695 30.8154 62.3149 30.8154Z" fill="#F5D52D"/>
<path d="M47.1126 16.8561L53.7721 10.1966C54.0392 9.92949 54.0392 9.49465 53.7721 9.22758C53.5051 8.96052 53.0702 8.96052 52.8032 9.22758L46.1437 15.8871C45.8766 16.1542 45.8766 16.589 46.1437 16.8561C46.4141 17.1231 46.8456 17.1231 47.1126 16.8561Z" fill="#F5D52D"/>
</svg>
